<svg width="32" height="32" viewBox="0 0 32 32" fill="none" xmlns="http://www.w3.org/2000/svg">
<path fill-rule="evenodd" clip-rule="evenodd" d="M6.25 4C6.25 3.58579 6.58579 3.25 7 3.25H9C9.34168 3.25 9.64873 3.48273 9.74315 3.81256L10.4827 6.25H25C25.2797 6.25 25.5399 6.39182 25.6901 6.62226C25.8403 6.8527 25.8627 7.14145 25.7506 7.39033L22.7506 14.3903C22.6087 14.7159 22.2892 14.9296 21.9365 14.9488L10.7983 15.4675L11.4915 18.25H23C23.4142 18.25 23.75 18.5858 23.75 19C23.75 19.4142 23.4142 19.75 23 19.75H11C10.6583 19.75 10.3513 19.5173 10.2569 19.1874L8.13935 12.9374L8.13714 12.9307L7.09131 9.43306L6.35685 7H7C7.41421 7 7.75 6.66421 7.75 6.25C7.75 5.83579 7.41421 5.5 7 5.5H6.25V4ZM10.8861 7.75L11.7494 10.6097C11.8913 10.9353 12.2108 11.149 12.5635 11.1682L21.486 11.5978L23.6151 7.75H10.8861Z" fill="#FFFFFF"/>
<path d="M9.5 27C10.6046 27 11.5 26.1046 11.5 25C11.5 23.8954 10.6046 23 9.5 23C8.39543 23 7.5 23.8954 7.5 25C7.5 26.1046 8.39543 27 9.5 27Z" fill="#FFFFFF"/>
<path d="M22.5 27C23.6046 27 24.5 26.1046 24.5 25C24.5 23.8954 23.6046 23 22.5 23C21.3954 23 20.5 23.8954 20.5 25C20.5 26.1046 21.3954 27 22.5 27Z" fill="#FFFFFF"/>
</svg>
